<mxfile host="Electron" modified="2023-08-01T14:10:12.303Z" agent="Mozilla/5.0 (Windows NT 10.0; Win64; x64) AppleWebKit/537.36 (KHTML, like Gecko) draw.io/21.6.5 Chrome/114.0.5735.243 Electron/25.3.1 Safari/537.36" etag="QI_fiSH0U0Cc-sP8zI4j" version="21.6.5" type="device" pages="2">
  <diagram name="Template Class with constrained Class parameter" id="C8Y1Z_EdeKyG7zpIh5gl">
    <mxGraphModel dx="880" dy="511" grid="1" gridSize="10" guides="1" tooltips="1" connect="1" arrows="1" fold="1" page="1" pageScale="1" pageWidth="1169" pageHeight="827" math="0" shadow="0">
      <root>
        <mxCell id="0" />
        <mxCell id="1" parent="0" />
        <mxCell id="eFCRZembknxJGjcbFX7U-1" value="Car" style="swimlane;fontStyle=1;align=center;verticalAlign=top;childLayout=stackLayout;horizontal=1;startSize=30;horizontalStack=0;resizeParent=1;resizeParentMax=0;resizeLast=0;collapsible=0;marginBottom=0;html=1;whiteSpace=wrap;" vertex="1" parent="1">
          <mxGeometry y="30" width="320" height="160" as="geometry" />
        </mxCell>
        <mxCell id="eFCRZembknxJGjcbFX7U-3" value="" style="swimlane;fontStyle=1;align=center;verticalAlign=top;horizontal=1;startSize=0;collapsible=0;marginBottom=0;html=1;strokeColor=none;fillColor=none;" vertex="1" parent="eFCRZembknxJGjcbFX7U-1">
          <mxGeometry y="30" width="320" height="130" as="geometry" />
        </mxCell>
        <mxCell id="eFCRZembknxJGjcbFX7U-12" value="dw : Wheel [n + 1]" style="html=1;align=center;verticalAlign=middle;rotatable=0;whiteSpace=wrap;" vertex="1" parent="eFCRZembknxJGjcbFX7U-3">
          <mxGeometry x="190" y="55" width="110" height="30" as="geometry" />
        </mxCell>
        <mxCell id="eFCRZembknxJGjcbFX7U-15" style="edgeStyle=orthogonalEdgeStyle;rounded=0;orthogonalLoop=1;jettySize=auto;html=1;entryX=0;entryY=0.5;entryDx=0;entryDy=0;endArrow=none;endFill=0;" edge="1" parent="eFCRZembknxJGjcbFX7U-3" source="eFCRZembknxJGjcbFX7U-13" target="eFCRZembknxJGjcbFX7U-12">
          <mxGeometry relative="1" as="geometry" />
        </mxCell>
        <mxCell id="eFCRZembknxJGjcbFX7U-13" value="e : CarEngine" style="html=1;align=center;verticalAlign=middle;rotatable=0;whiteSpace=wrap;" vertex="1" parent="eFCRZembknxJGjcbFX7U-3">
          <mxGeometry x="20" y="55" width="100" height="30" as="geometry" />
        </mxCell>
        <mxCell id="eFCRZembknxJGjcbFX7U-16" value="CarEngine -&amp;gt; Engine,&lt;br&gt;n : LiteralInteger" style="shape=partialRectangle;html=1;top=1;align=left;dashed=1;" vertex="1" parent="1">
          <mxGeometry x="220" width="130" height="50" as="geometry" />
        </mxCell>
      </root>
    </mxGraphModel>
  </diagram>
  <diagram id="qZN0XtGbU1gyTFeuE0Bk" name="Bound Class">
    <mxGraphModel dx="880" dy="511" grid="1" gridSize="10" guides="1" tooltips="1" connect="1" arrows="1" fold="1" page="1" pageScale="1" pageWidth="1169" pageHeight="827" math="0" shadow="0">
      <root>
        <mxCell id="0" />
        <mxCell id="1" parent="0" />
        <mxCell id="VSegiKtBcTcGBZa9hVQQ-1" value="DieselCar : Car&amp;lt;CarEngine -&amp;gt; DieselEngine, n -&amp;gt; 2&amp;gt;" style="fontStyle=0;html=1;whiteSpace=wrap;" vertex="1" parent="1">
          <mxGeometry width="320" height="40" as="geometry" />
        </mxCell>
      </root>
    </mxGraphModel>
  </diagram>
</mxfile>
